<svg xmlns="http://www.w3.org/2000/svg" width="130" height="130" viewBox="0 0 130 130">
    <defs>
        <clipPath id="clip-path">
            <path id="Rectangle_166" fill="#fff" stroke="#707070" d="M0 0H130V130H0z" transform="translate(-7771 -13195)"/>
        </clipPath>
        <style>
            .cls-5{fill:#f4f6f9}
        </style>
    </defs>
    <g id="Mask_Group_57" clip-path="url(#clip-path)" transform="translate(7771 13195)">
        <g id="hand-bag" transform="translate(-7762.333 -13186.333)">
            <path id="Path_186" fill="#008331" d="M0 56.335A56.333 56.333 0 1 0 56.332 0 56.329 56.329 0 0 0 0 56.335z"/>
            <path id="Path_187" fill="#006e29" d="M181.746 132.352l-42.965-42.957a15.768 15.768 0 0 0-11.448-5.128c-8.772 0-16.182 7.794-16.182 17.019v7.253h-2.391a17.047 17.047 0 0 0-17.027 17.027v24.16a8.93 8.93 0 0 0 2.806 6.487c.1.109 17.941 17.889 17.976 17.9q.547.57 1.092 1.141a55.541 55.541 0 0 0 68.138-42.9z" transform="translate(-70.146 -64.298)"/>
            <g id="Group_138" transform="translate(20.734 19.116)">
                <path id="Path_188" d="M146.6 108.539h-3.085v-7.253c0-9.225-7.41-17.019-16.182-17.019s-16.182 7.794-16.182 17.019v7.253h-2.391a17.047 17.047 0 0 0-17.027 17.027v24.16a8.986 8.986 0 0 0 8.976 8.976h53.248a8.986 8.986 0 0 0 8.976-8.976v-24.853a16.352 16.352 0 0 0-16.333-16.334zm-32.211-7.253c0-7.471 5.927-13.783 12.945-13.783s12.945 6.311 12.945 13.783v7.253h-25.89zm-5.627 10.49h2.391v4.854a1.618 1.618 0 0 0 3.236 0v-4.854h25.891v4.854a1.618 1.618 0 0 0 3.236 0v-4.854h3.084a13.112 13.112 0 0 1 13.1 13.1v15.274a17.039 17.039 0 0 0-15.319 15.319h-34.093a17.039 17.039 0 0 0-15.319-15.319v-14.584a13.807 13.807 0 0 1 13.79-13.79zm-13.793 37.951v-6.322a13.8 13.8 0 0 1 12.061 12.061h-6.322a5.745 5.745 0 0 1-5.739-5.739zm58.987 5.739h-6.322a13.8 13.8 0 0 1 12.061-12.061v6.322a5.745 5.745 0 0 1-5.739 5.739z" class="cls-5" transform="translate(-91.732 -84.267)"/>
                <path id="Path_189" d="M138.151 281.635h42.072v1.618a1.618 1.618 0 0 0 3.236 0v-1.618h3.241a1.618 1.618 0 1 0 0-3.236h-48.549a1.618 1.618 0 0 0 0 3.236z" class="cls-5" transform="translate(-126.824 -236.327)"/>
            </g>
        </g>
    </g>
</svg>
