<svg width="128" height="157" viewBox="0 0 128 157" fill="none" xmlns="http://www.w3.org/2000/svg">
<path fill-rule="evenodd" clip-rule="evenodd" d="M9.94708 0.57669C7.68609 1.24469 5.62506 2.46089 3.94708 4.11717C3.07395 5.14511 2.33689 6.28115 1.75409 7.49748L0.779053 9.53778V147.005L1.90607 149.315C3.11568 151.922 5.24104 153.994 7.87805 155.136L9.91907 156.116H118.082L120.123 155.136C122.76 153.994 124.885 151.922 126.094 149.315L127.222 147.005V9.53778L126.247 7.49748C125.105 4.86091 123.034 2.73576 120.428 1.52652L118.112 0.396492L64.639 0.336426C33.013 0.336426 10.6491 0.426671 9.94708 0.57669ZM27.9241 7.46769C29.6301 17.649 37.3391 27.7602 47.1811 32.7008L49.3441 33.7606L49.4351 55.0332L49.527 76.3059L50.6541 78.6163C51.8607 81.2254 53.987 83.2982 56.626 84.4373L58.6671 85.4174H69.3311L71.373 84.4373C74.0117 83.2976 76.1378 81.225 77.345 78.6163L78.472 76.3059L78.5641 55.0332L78.6551 33.7606L80.3611 32.9709C85.6029 30.2437 90.188 26.4075 93.798 21.7293C96.9106 17.4932 99.0533 12.6245 100.074 7.46769L100.44 5.27699L108.209 5.17737C113.633 5.11736 116.345 5.21743 117.32 5.48746C118.392 5.91377 119.369 6.5475 120.195 7.35244C121.021 8.15739 121.68 9.11764 122.134 10.178C122.682 12.0082 122.682 144.505 122.134 146.335C121.218 148.434 119.542 150.11 117.442 151.025C115.613 151.545 12.3851 151.545 10.5571 151.025C8.45705 150.11 6.78085 148.435 5.86505 146.335C5.31605 144.505 5.31605 12.0082 5.86505 10.178C6.7915 8.15487 8.38282 6.50993 10.3741 5.51725C13.3989 5.18787 16.4442 5.08777 19.4841 5.21741L27.5591 5.27699L27.9241 7.46769ZM37.8571 7.2875C38.9571 11.7981 41.3001 15.6387 45.3221 19.4692C48.6464 22.671 52.7362 24.9664 57.2007 26.1361C61.6653 27.3057 66.3552 27.3103 70.8221 26.1497C80.0531 23.7694 88.037 15.9686 90.139 7.2875L90.657 5.1173H95.3791V5.97727C95.267 7.00684 95.0631 8.02438 94.7701 9.01769C92.4241 17.4588 86.1471 24.6798 77.4941 28.8903C76.2494 29.43 75.0896 30.1474 74.0511 31.0205C73.8681 31.3905 73.751 38.9717 73.751 52.9934C73.751 68.8954 73.66 74.6858 73.386 75.6359C72.47 77.7357 70.7939 79.4112 68.694 80.3265C65.5849 80.8165 62.4182 80.8165 59.3091 80.3265C57.2091 79.4114 55.5329 77.7358 54.6171 75.6359C54.3431 74.6858 54.2521 68.8954 54.2521 52.9934C54.2521 38.9717 54.129 31.3905 53.946 31.0205C52.9081 30.1471 51.7487 29.4296 50.5041 28.8903C41.8511 24.6798 35.5741 17.4588 33.2281 9.01769C32.9348 8.02437 32.7307 7.00684 32.618 5.97727V5.1173H37.3411L37.8571 7.2875ZM85.6321 5.36733C85.1092 7.37861 84.3309 9.31438 83.316 11.1278C81.3497 14.5083 78.5309 17.3137 75.1412 19.2636C71.7514 21.2135 67.9095 22.2396 63.9991 22.2396C60.0887 22.2396 56.2467 21.2135 52.857 19.2636C49.4673 17.3137 46.6484 14.5083 44.6821 11.1278C43.6675 9.31439 42.8895 7.37861 42.3671 5.36733C42.3671 5.24732 52.1171 5.1173 63.9991 5.1173C75.9131 5.1173 85.6321 5.24732 85.6321 5.36733Z" fill="#179D49"/>
<path fill-rule="evenodd" clip-rule="evenodd" d="M101.476 83.6773C100.909 84.2746 100.574 85.0552 100.532 85.8778C100.456 87.0571 99.9532 88.1681 99.1177 89.0037C98.2822 89.8393 97.1711 90.3424 95.992 90.4184C94.133 90.7184 93.249 91.5085 93.249 92.8787C93.249 94.2488 94.133 95.0487 95.992 95.3487C97.1711 95.4247 98.2822 95.9278 99.1177 96.7634C99.9532 97.599 100.456 98.71 100.532 99.8893C100.832 101.75 101.632 102.63 103 102.63C104.368 102.63 105.162 101.75 105.468 99.8893C105.543 98.71 106.046 97.5987 106.881 96.7629C107.717 95.9272 108.828 95.4244 110.007 95.3487C111.866 95.0487 112.749 94.2488 112.749 92.8787C112.749 91.5085 111.866 90.7184 110.007 90.4184C108.828 90.3428 107.717 89.8399 106.881 89.0042C106.046 88.1684 105.543 87.0571 105.468 85.8778C105.162 84.0176 104.368 83.1274 103 83.1274C102.45 83.1595 101.92 83.3504 101.476 83.6773ZM103.487 92.6086C103.55 92.7193 103.572 92.8488 103.548 92.9739C103.525 93.099 103.458 93.2114 103.359 93.2918C103.26 93.3722 103.136 93.4149 103.009 93.4124C102.882 93.41 102.76 93.3627 102.664 93.2786C102.583 93.2017 102.526 93.1032 102.499 92.9949C102.472 92.8866 102.476 92.7727 102.511 92.6667C102.547 92.5608 102.611 92.4672 102.698 92.3967C102.784 92.3261 102.889 92.2814 103 92.2682C103.1 92.2881 103.195 92.3289 103.279 92.3874C103.363 92.4459 103.434 92.5213 103.487 92.6086Z" fill="#179D49"/>
<path fill-rule="evenodd" clip-rule="evenodd" d="M86.851 103.18C86.2839 103.777 85.9488 104.558 85.906 105.38C85.8304 106.559 85.3279 107.671 84.4926 108.507C83.6572 109.342 82.5461 109.845 81.367 109.921C79.508 110.221 78.624 111.011 78.624 112.381C78.624 113.751 79.508 114.551 81.367 114.851C82.5461 114.927 83.6572 115.43 84.4926 116.265C85.3279 117.101 85.8304 118.212 85.906 119.392C86.516 123.172 90.233 123.172 90.842 119.392C90.9178 118.212 91.4205 117.101 92.256 116.265C93.0916 115.43 94.2028 114.927 95.382 114.851C97.241 114.551 98.125 113.751 98.125 112.381C98.125 111.011 97.241 110.221 95.382 109.921C94.2028 109.845 93.0916 109.342 92.256 108.507C91.4205 107.671 90.9178 106.56 90.842 105.38C90.542 103.52 89.742 102.63 88.374 102.63C87.8238 102.662 87.2947 102.853 86.851 103.18ZM88.862 112.111C88.9244 112.222 88.9457 112.351 88.9221 112.475C88.8986 112.6 88.8317 112.712 88.7333 112.792C88.635 112.872 88.5115 112.915 88.3846 112.913C88.2577 112.911 88.1356 112.864 88.04 112.781C87.9591 112.704 87.9018 112.606 87.8746 112.498C87.8475 112.39 87.8517 112.276 87.8867 112.17C87.9217 112.064 87.9861 111.97 88.0724 111.9C88.1587 111.829 88.2633 111.784 88.374 111.771C88.4745 111.79 88.5697 111.831 88.6537 111.89C88.7378 111.948 88.8087 112.024 88.862 112.111Z" fill="#179D49"/>
<path fill-rule="evenodd" clip-rule="evenodd" d="M101.476 122.682C100.909 123.279 100.574 124.06 100.532 124.883C100.456 126.062 99.9532 127.173 99.1177 128.009C98.2822 128.844 97.1711 129.347 95.992 129.423C94.133 129.723 93.249 130.513 93.249 131.884C93.249 133.254 94.133 134.054 95.992 134.354C97.1711 134.43 98.2822 134.933 99.1177 135.768C99.9532 136.604 100.456 137.715 100.532 138.894C100.832 140.754 101.632 141.635 103 141.635C104.368 141.635 105.162 140.754 105.468 138.894C105.543 137.715 106.046 136.604 106.881 135.768C107.717 134.932 108.828 134.429 110.007 134.354C111.866 134.054 112.749 133.254 112.749 131.884C112.749 130.513 111.866 129.723 110.007 129.423C108.828 129.348 107.717 128.845 106.881 128.009C106.046 127.173 105.543 126.062 105.468 124.883C105.162 123.022 104.368 122.132 103 122.132C102.45 122.164 101.92 122.355 101.476 122.682ZM103.487 131.613C103.55 131.724 103.572 131.854 103.548 131.979C103.525 132.104 103.458 132.216 103.359 132.297C103.26 132.377 103.136 132.42 103.009 132.417C102.882 132.415 102.76 132.368 102.664 132.284C102.583 132.207 102.526 132.108 102.499 132C102.472 131.891 102.476 131.778 102.511 131.672C102.547 131.566 102.611 131.472 102.698 131.402C102.784 131.331 102.889 131.286 103 131.273C103.1 131.293 103.195 131.334 103.279 131.392C103.363 131.451 103.434 131.526 103.487 131.613Z" fill="#179D49"/>
<path fill-rule="evenodd" clip-rule="evenodd" d="M61.562 37.2115C59.5663 38.1984 57.973 39.8451 57.052 41.8722C56.4926 43.4241 56.487 45.1214 57.0359 46.677C57.5849 48.2326 58.6547 49.5505 60.0641 50.4075C61.4735 51.2644 63.1357 51.6074 64.7692 51.3788C66.4027 51.1502 67.9069 50.3639 69.0269 49.1529C72.0129 46.2025 72.104 42.3922 69.27 39.2518C68.3346 38.1824 67.1011 37.4168 65.7278 37.0532C64.3544 36.6897 62.9038 36.7449 61.562 37.2115ZM65.675 42.4524C65.9142 42.661 66.1061 42.9184 66.2375 43.2073C66.369 43.4963 66.4369 43.8099 66.4369 44.1274C66.4369 44.4448 66.369 44.7584 66.2375 45.0474C66.1061 45.3364 65.9142 45.5938 65.675 45.8024C65.3401 46.1396 64.9128 46.3704 64.4471 46.4651C63.9814 46.5597 63.4981 46.5144 63.0581 46.3347C62.6182 46.155 62.2413 45.8489 61.9751 45.4552C61.7088 45.0615 61.5651 44.5978 61.562 44.1225C61.5949 43.4874 61.8625 42.8872 62.3127 42.4382C62.763 41.9892 63.3639 41.7231 63.999 41.692C64.315 41.7002 64.6261 41.7714 64.914 41.902C65.2019 42.0326 65.4606 42.22 65.675 42.4524Z" fill="#179D49"/>
<path fill-rule="evenodd" clip-rule="evenodd" d="M61.5621 59.1436C59.5678 60.1373 57.9756 61.7861 57.0521 63.8141C56.4978 65.3652 56.4956 67.06 57.0459 68.6125C57.5961 70.1651 58.6652 71.48 60.0725 72.3357C61.4798 73.1913 63.1392 73.5355 64.7706 73.3094C66.402 73.0834 67.9054 72.3009 69.0271 71.0948C72.0131 68.1344 72.1041 64.324 69.2701 61.1936C68.3341 60.125 67.1011 59.3593 65.7284 58.9941C64.3556 58.629 62.9052 58.6811 61.5621 59.1436ZM65.6751 64.384C65.9509 64.6651 66.1533 65.0097 66.2644 65.3875C66.3756 65.7653 66.3921 66.1646 66.3125 66.5503C66.2329 66.9359 66.0597 67.2963 65.8081 67.5992C65.5564 67.9021 65.2341 68.1384 64.8696 68.2873C64.5051 68.4362 64.1095 68.4934 63.7178 68.4533C63.3261 68.4132 62.9503 68.277 62.6234 68.0573C62.2966 67.8376 62.0289 67.541 61.8438 67.1934C61.6587 66.8458 61.5619 66.4582 61.5621 66.0644C61.5946 65.4282 61.8617 64.8264 62.3118 64.3757C62.7619 63.925 63.3631 63.6574 63.9991 63.6241C64.3147 63.6343 64.6252 63.7066 64.9128 63.837C65.2004 63.9675 65.4594 64.1532 65.6751 64.384Z" fill="#179D49"/>
</svg>
