<svg xmlns="http://www.w3.org/2000/svg" xmlns:xlink="http://www.w3.org/1999/xlink" version="1.1" width="256" height="256" viewBox="0 0 256 256" xml:space="preserve">

<defs>
</defs>
<g style="stroke: none; stroke-width: 0; stroke-dasharray: none; stroke-linecap: butt; stroke-linejoin: miter; stroke-miterlimit: 10; fill: none; fill-rule: nonzero; opacity: 1;" transform="translate(1.4065934065934016 1.4065934065934016) scale(2.81 2.81)" >
	<path d="M 70.24 20.934 c 4.069 0 7.378 3.31 7.378 7.378 v 3.722 c 0 4.069 -3.31 7.378 -7.378 7.378 c -4.069 0 -7.378 -3.31 -7.378 -7.378 v -3.722 C 62.862 24.244 66.172 20.934 70.24 20.934 M 70.24 17.934 L 70.24 17.934 c -5.708 0 -10.379 4.67 -10.379 10.378 v 3.722 c 0 5.708 4.67 10.378 10.378 10.378 h 0 c 5.708 0 10.378 -4.67 10.378 -10.378 v -3.722 C 80.619 22.604 75.948 17.934 70.24 17.934 L 70.24 17.934 z" style="stroke: none; stroke-width: 1; stroke-dasharray: none; stroke-linecap: butt; stroke-linejoin: miter; stroke-miterlimit: 10; fill: rgb(0,0,0); fill-rule: nonzero; opacity: 1;" transform=" matrix(1 0 0 1 0 0) " stroke-linecap="round" />
	<path d="M 19.76 20.934 c 4.069 0 7.378 3.31 7.378 7.378 v 3.722 c 0 4.069 -3.31 7.378 -7.379 7.378 c -4.069 0 -7.378 -3.31 -7.378 -7.378 v -3.722 C 12.381 24.244 15.691 20.934 19.76 20.934 M 19.76 17.934 L 19.76 17.934 c -5.708 0 -10.379 4.67 -10.379 10.378 v 3.722 c 0 5.708 4.67 10.378 10.378 10.378 h 0 c 5.708 0 10.378 -4.67 10.378 -10.378 v -3.722 C 30.138 22.604 25.468 17.934 19.76 17.934 L 19.76 17.934 z" style="stroke: none; stroke-width: 1; stroke-dasharray: none; stroke-linecap: butt; stroke-linejoin: miter; stroke-miterlimit: 10; fill: rgb(0,0,0); fill-rule: nonzero; opacity: 1;" transform=" matrix(1 0 0 1 0 0) " stroke-linecap="round" />
	<path d="M 63.291 62.979 H 32.709 c -0.829 0 -1.5 -0.672 -1.5 -1.5 s 0.671 -1.5 1.5 -1.5 h 30.582 c 0.828 0 1.5 0.672 1.5 1.5 S 64.119 62.979 63.291 62.979 z" style="stroke: none; stroke-width: 1; stroke-dasharray: none; stroke-linecap: butt; stroke-linejoin: miter; stroke-miterlimit: 10; fill: rgb(0,0,0); fill-rule: nonzero; opacity: 1;" transform=" matrix(1 0 0 1 0 0) " stroke-linecap="round" />
	<path d="M 63.291 62.979 c -0.362 0 -0.726 -0.13 -1.014 -0.395 l -5.894 -5.404 c -0.61 -0.56 -0.651 -1.509 -0.092 -2.119 c 0.561 -0.609 1.509 -0.652 2.119 -0.092 l 5.894 5.404 c 0.61 0.56 0.651 1.509 0.092 2.119 C 64.101 62.815 63.696 62.979 63.291 62.979 z" style="stroke: none; stroke-width: 1; stroke-dasharray: none; stroke-linecap: butt; stroke-linejoin: miter; stroke-miterlimit: 10; fill: rgb(0,0,0); fill-rule: nonzero; opacity: 1;" transform=" matrix(1 0 0 1 0 0) " stroke-linecap="round" />
	<path d="M 57.397 68.384 c -0.405 0 -0.81 -0.164 -1.105 -0.486 c -0.56 -0.61 -0.519 -1.56 0.092 -2.119 l 5.894 -5.404 c 0.611 -0.559 1.56 -0.518 2.119 0.092 c 0.56 0.61 0.519 1.56 -0.092 2.119 l -5.894 5.404 C 58.123 68.253 57.76 68.384 57.397 68.384 z" style="stroke: none; stroke-width: 1; stroke-dasharray: none; stroke-linecap: butt; stroke-linejoin: miter; stroke-miterlimit: 10; fill: rgb(0,0,0); fill-rule: nonzero; opacity: 1;" transform=" matrix(1 0 0 1 0 0) " stroke-linecap="round" />
	<path d="M 57.291 52.979 H 26.709 c -0.829 0 -1.5 -0.672 -1.5 -1.5 s 0.671 -1.5 1.5 -1.5 h 30.582 c 0.828 0 1.5 0.672 1.5 1.5 S 58.119 52.979 57.291 52.979 z" style="stroke: none; stroke-width: 1; stroke-dasharray: none; stroke-linecap: butt; stroke-linejoin: miter; stroke-miterlimit: 10; fill: rgb(0,0,0); fill-rule: nonzero; opacity: 1;" transform=" matrix(1 0 0 1 0 0) " stroke-linecap="round" />
	<path d="M 26.71 52.979 c -0.406 0 -0.81 -0.164 -1.106 -0.486 c -0.56 -0.61 -0.519 -1.56 0.092 -2.119 l 5.894 -5.404 c 0.61 -0.56 1.559 -0.52 2.119 0.092 c 0.56 0.61 0.519 1.56 -0.092 2.119 l -5.894 5.404 C 27.435 52.849 27.072 52.979 26.71 52.979 z" style="stroke: none; stroke-width: 1; stroke-dasharray: none; stroke-linecap: butt; stroke-linejoin: miter; stroke-miterlimit: 10; fill: rgb(0,0,0); fill-rule: nonzero; opacity: 1;" transform=" matrix(1 0 0 1 0 0) " stroke-linecap="round" />
	<path d="M 32.603 58.384 c -0.362 0 -0.725 -0.13 -1.013 -0.395 l -5.894 -5.404 c -0.611 -0.56 -0.652 -1.509 -0.092 -2.119 c 0.56 -0.609 1.508 -0.652 2.119 -0.092 l 5.894 5.404 c 0.611 0.56 0.652 1.509 0.092 2.119 C 33.413 58.22 33.008 58.384 32.603 58.384 z" style="stroke: none; stroke-width: 1; stroke-dasharray: none; stroke-linecap: butt; stroke-linejoin: miter; stroke-miterlimit: 10; fill: rgb(0,0,0); fill-rule: nonzero; opacity: 1;" transform=" matrix(1 0 0 1 0 0) " stroke-linecap="round" />
	<path d="M 36.519 65.529 V 69.5 H 3 v -9.522 c 0 -6.251 4.457 -11.698 10.501 -13.015 c 1.986 0.869 4.087 1.308 6.259 1.308 c 1.718 0 3.388 -0.286 4.995 -0.831 l 3.224 -3.046 c -0.771 -0.238 -1.561 -0.434 -2.375 -0.556 c -1.756 0.909 -3.74 1.432 -5.844 1.432 s -4.088 -0.523 -5.844 -1.432 C 6.069 45.01 0 51.819 0 59.978 v 10.736 C 0 71.696 0.804 72.5 1.786 72.5 h 35.947 c 0.983 0 1.786 -0.804 1.786 -1.786 v -5.184 H 36.519 z" style="stroke: none; stroke-width: 1; stroke-dasharray: none; stroke-linecap: butt; stroke-linejoin: miter; stroke-miterlimit: 10; fill: rgb(0,0,0); fill-rule: nonzero; opacity: 1;" transform=" matrix(1 0 0 1 0 0) " stroke-linecap="round" />
	<path d="M 76.084 43.839 c -1.756 0.909 -3.74 1.432 -5.844 1.432 c -2.104 0 -4.088 -0.523 -5.844 -1.432 c -3.448 0.515 -6.552 2.119 -8.949 4.447 h 5.024 c 1.087 -0.595 2.262 -1.051 3.51 -1.323 c 1.986 0.869 4.087 1.308 6.259 1.308 s 4.273 -0.44 6.259 -1.308 C 82.543 48.28 87 53.727 87 59.978 V 69.5 H 53.481 v -3.971 h -3 v 5.184 c 0 0.983 0.804 1.786 1.786 1.786 h 35.947 c 0.983 0 1.786 -0.804 1.786 -1.786 V 59.978 C 90 51.819 83.931 45.01 76.084 43.839 z" style="stroke: none; stroke-width: 1; stroke-dasharray: none; stroke-linecap: butt; stroke-linejoin: miter; stroke-miterlimit: 10; fill: rgb(0,0,0); fill-rule: nonzero; opacity: 1;" transform=" matrix(1 0 0 1 0 0) " stroke-linecap="round" />
</g>
</svg>