<svg xmlns="http://www.w3.org/2000/svg" width="64" height="64" viewBox="0 0 64 64">
    <defs>
        <clipPath id="9axegfpbma">
            <path fill="#fff" stroke="#707070" d="M0 0H64V64H0z" transform="translate(205 1373)"/>
        </clipPath>
    </defs>
    <g clip-path="url(#9axegfpbma)" transform="translate(-205 -1373)">
        <g>
            <g>
                <g>
                    <g>
                        <path fill="#242424" d="M3.951 0a2.817 2.817 0 0 1 2.873 2.756v.516h14.317c1.965 0 2.916.532 4.4 2.33l.266.33 2.918 3.886H54.85A3.116 3.116 0 0 1 58 12.9v20.02A3.116 3.116 0 0 1 54.85 36H20.209a3.114 3.114 0 0 1-3.148-3.081v-9.13h-2.5a6.848 6.848 0 0 1-4.261-1.726c-.3-.243-.582-.5-.843-.753L9 20.839l-.109-.122H6.762a2.847 2.847 0 0 1-2.811 2.191H2.873A2.817 2.817 0 0 1 0 20.152V2.756A2.817 2.817 0 0 1 2.873 0zM54.73 11.454H22.053l5.392 4.708c1.426 1.245.607 2.9-1.222 3.747a5.508 5.508 0 0 1-5.086-.16l-.3-.2-2.07-1.806v15.094a1.548 1.548 0 0 0 1.566 1.527h34.4a1.547 1.547 0 0 0 1.564-1.528V12.981a1.546 1.546 0 0 0-1.564-1.527zM6.822 19.081h2.911l.312.405.183.212.127.139a10.236 10.236 0 0 0 1.039.974 5.541 5.541 0 0 0 2.853 1.328l.308.014h2.5v-4.569h-1.132a4.712 4.712 0 0 1-4.022-1.7l-.163-.238a4.176 4.176 0 0 1-.642-2.06l-.007-.292h1.7A2.765 2.765 0 0 0 13.2 14.8a2.729 2.729 0 0 0 2.378 1.142l.344.009h3.317l2.672 2.337a3.7 3.7 0 0 0 3.571.151c.906-.422 1.1-.817.817-1.064l-5.836-5.094.007-2v-.463h6.246L24.521 6.9c-1.33-1.674-1.865-2.012-3.38-2.012H6.822v14.193zM3.951 1.379H2.873a1.416 1.416 0 0 0-1.425 1.2l-.011.174v17.398a1.4 1.4 0 0 0 1.256 1.368l.181.01h1.077a1.416 1.416 0 0 0 1.425-1.2l.011-.174V2.756a1.4 1.4 0 0 0-1.256-1.367l-.181-.01z" transform="translate(208 1381) translate(0 6)"/>
                        <g transform="translate(208 1381) translate(0 6) translate(29.029 13.875)">
                            <circle cx="8.509" cy="8.509" r="8.509" fill="#179d49"/>
                        </g>
                    </g>
                    <g>
                        <path fill="#fff" d="M5.01 4.828l-2.792-.673a.854.854 0 0 1-.705-.785.9.9 0 0 1 .969-.817h1.745a2.043 2.043 0 0 1 1.073.293.42.42 0 0 0 .462-.046l.538-.457a.293.293 0 0 0-.047-.488 3.731 3.731 0 0 0-2.027-.579H4.16V.318A.353.353 0 0 0 3.78 0h-.756a.353.353 0 0 0-.378.318v.958H2.48A2.27 2.27 0 0 0 .01 3.569a2.347 2.347 0 0 0 1.913 1.845l2.667.642a.856.856 0 0 1 .71.784.9.9 0 0 1-.969.817h-1.75a2.052 2.052 0 0 1-1.07-.291.417.417 0 0 0-.465.045l-.539.456a.294.294 0 0 0 .045.488 3.726 3.726 0 0 0 2.029.579h.065v.958a.353.353 0 0 0 .38.318h.756a.353.353 0 0 0 .378-.318v-.958h.063a2.586 2.586 0 0 0 2.445-1.4 2.06 2.06 0 0 0-1.66-2.7z" transform="translate(208 1381) translate(0 6) translate(34.127 17.73) translate(.001)"/>
                    </g>
                </g>
            </g>
        </g>
    </g>
</svg>