<svg xmlns="http://www.w3.org/2000/svg" width="120" height="120" viewBox="0 0 120 120">
    <defs>
        <clipPath id="fga6lkwlca">
            <path fill="#fff" stroke="#707070" d="M0 0H120V120H0z" transform="translate(384 1724)"/>
        </clipPath>
    </defs>
    <g clip-path="url(#fga6lkwlca)" transform="translate(-384 -1724)">
        <g>
            <g>
                <g>
                    <path fill="#a50064" d="M29.626 3h36.748c9.26 0 12.617.962 16 2.773a18.885 18.885 0 0 1 7.851 7.851c1.81 3.385 2.773 6.743 2.773 16v36.75c0 9.26-.962 12.617-2.773 16a18.885 18.885 0 0 1-7.851 7.851c-3.385 1.81-6.743 2.773-16 2.773H29.626c-9.26 0-12.617-.962-16-2.773a18.885 18.885 0 0 1-7.851-7.851C3.962 78.991 3 75.633 3 66.374V29.626c0-9.26.962-12.617 2.773-16a18.885 18.885 0 0 1 7.851-7.851C17.009 3.962 20.367 3 29.626 3z" transform="translate(399 1739) translate(-3 -3)"/>
                    <path fill="#fff" d="M55.34 8c-7.236 0-13.1 5.484-13.1 12.248S48.107 32.5 55.34 32.5s13.1-5.484 13.1-12.252S62.576 8 55.34 8zm0 17.478a5.4 5.4 0 0 1-5.564-5.2 5.576 5.576 0 0 1 11.128 0 5.4 5.4 0 0 1-5.564 5.2zm-16.879 7.046h-7.537v-15.4a2.224 2.224 0 0 0-4.437 0v15.4h-7.54v-15.4a2.226 2.226 0 0 0-4.441 0v15.4H7V17.2C7 12.127 11.413 8 16.837 8a10.209 10.209 0 0 1 5.891 1.846A10.655 10.655 0 0 1 28.62 8c5.427 0 9.841 4.127 9.841 9.2zM55.34 37.8c-7.236 0-13.1 5.481-13.1 12.248S48.107 62.3 55.34 62.3s13.1-5.484 13.1-12.252S62.576 37.8 55.34 37.8zm-26.716-.031c5.427 0 9.837 4.127 9.837 9.2V62.3h-7.537V46.9a2.224 2.224 0 0 0-4.437 0v15.4h-7.54V46.9a2.226 2.226 0 0 0-4.441 0v15.4H7V46.978c0-5.074 4.413-9.2 9.837-9.2a10.207 10.207 0 0 1 5.891 1.843 10.682 10.682 0 0 1 5.891-1.846zm26.716 7.1a5.213 5.213 0 1 1-5.564 5.2 5.394 5.394 0 0 1 5.564-5.192z" transform="translate(399 1739) translate(7.28 9.85)"/>
                </g>
            </g>
        </g>
    </g>
</svg>